<?xml version="1.0" standalone="no"?>
<!DOCTYPE svg PUBLIC "-//W3C//DTD SVG 20010904//EN"
 "http://www.w3.org/TR/2001/REC-SVG-20010904/DTD/svg10.dtd">
<svg version="1.0" xmlns="http://www.w3.org/2000/svg"
 width="512.000000pt" height="512.000000pt" viewBox="0 0 512.000000 512.000000"
 preserveAspectRatio="xMidYMid meet">

<g transform="translate(0.000000,512.000000) scale(0.100000,-0.100000)"
fill="#000000" stroke="none">
<path d="M2315 5109 c-800 -83 -1501 -518 -1927 -1196 -494 -786 -516 -1810
-56 -2613 203 -354 478 -647 822 -878 238 -159 600 -311 876 -366 214 -43 295
-51 530 -51 236 0 333 10 532 51 879 183 1616 843 1897 1699 93 282 126 493
126 805 0 301 -32 513 -116 775 -124 390 -330 728 -622 1024 -399 404 -893
653 -1462 737 -123 18 -478 26 -600 13z m374 -1215 c26 -7 66 -26 89 -41 85
-58 1238 -1033 1255 -1061 45 -78 29 -182 -37 -248 -47 -48 -93 -64 -183 -64
l-63 0 0 -549 c0 -383 -3 -558 -11 -582 -18 -51 -55 -97 -102 -122 -41 -21
-53 -22 -359 -25 l-318 -3 0 343 c0 189 -4 371 -9 405 -20 134 -99 244 -219
304 -63 32 -73 34 -172 34 -95 0 -111 -3 -162 -28 -126 -62 -209 -174 -228
-308 -5 -35 -10 -218 -10 -407 l0 -343 -317 3 c-307 3 -319 4 -360 25 -47 25
-84 71 -102 122 -8 24 -11 199 -11 582 l0 549 -62 0 c-89 0 -133 15 -182 63
-68 66 -85 170 -39 248 20 34 1187 1016 1267 1067 94 59 215 72 335 36z"/>
</g>
</svg>
